<?xml version="1.0" encoding="UTF-8"?>
<svg xmlns="http://www.w3.org/2000/svg" xmlns:xlink="http://www.w3.org/1999/xlink" version="1.1" width="512" height="512" x="0" y="0" viewBox="0 0 374.8 374.8" style="enable-background:new 0 0 512 512" xml:space="preserve" class="">
  <g>
    <path d="M211 27.6c-8.4-10-16.4-19.2-23.6-27.6-7.2 8.8-15.2 18-23.6 27.6C113 86 43 167.2 43 230.4c0 40 16 76 42.4 102 26 26 62 42.4 102 42.4s76-16 102-42.4c26-26 42.4-62.4 42.4-102 0-63.2-70-144-120.8-202.8zM188.2 342c-30 0-57.6-12.4-77.2-32s-32-47.2-32-77.2c-.4-5.6 4.4-10 10-10s10 4.4 10 10c0 24.8 10 46.8 26 63.2 16 16 38.4 26 63.2 26 5.6 0 10 4.4 10 10s-4.4 10-10 10z" fill="#3b82f6" opacity="1" data-original="#000000" class=""/>
  </g>
</svg>
